# xmcd CD database file
#
# Track frame offsets:
#	150
#	934
#	25696
#	34289
#	42379
#	51927
#	85763
#	120706
#	154671
#	165654
#
# Disc length: 2547 seconds
#
# Revision: 0
# Processed by: cddbd v1.5.2PL0 Copyright (c) Steve Scherf et al.
# Submitted via: CDex 1.77
#
DISCID=6e09f10a
DTITLE=Marcin Grochowina and Klavier - Miles to Mozart
DYEAR=2011
DGENRE=Jazz
TTITLE0=Intro
TTITLE1=Dave Brubeck - Blue Rondo a La Turk
TTITLE2=Nana
TTITLE3=Asturana
TTITLE4=El pano moruno
TTITLE5=Chick Corea - La Fiesta
TTITLE6=Marcin Grochowina - Chopin Visions
TTITLE7=Joe Zawinul - Birdland
TTITLE8=George Gershwin - It Ain't Necessarily So
TTITLE9=George Gershwin - I got Rhythm
EXTD=YEAR: 2011
EXTT0=
EXTT1=
EXTT2=
EXTT3=
EXTT4=
EXTT5=
EXTT6=
EXTT7=
EXTT8=
EXTT9=
PLAYORDER=
